<svg version="1.0" xmlns="http://www.w3.org/2000/svg"
 width="1917.000000pt" height="508.000000pt" viewBox="0 0 1917.000000 508.000000"
 preserveAspectRatio="xMidYMid meet">
<style>
	path {
		fill: black;
	}
	@media (prefers-color-scheme: dark) {
		path { fill: white; }
	}
</style>
<g transform="translate(0.000000,508.000000) scale(0.100000,-0.100000)"
fill="#000000" stroke="none">
<path d="M5 5043 c7 -51 25 -564 25 -719 l0 -124 80 0 c44 0 80 3 80 6 0 4 7
84 16 178 25 281 51 377 108 395 67 21 287 33 624 34 194 0 354 -2 356 -4 2
-2 9 -146 16 -319 15 -390 7 -2633 -9 -2750 -32 -228 -57 -246 -353 -257
l-168 -6 0 -84 0 -83 53 0 c28 0 219 5 422 10 324 9 1005 2 1055 -11 12 -3 15
9 15 73 0 42 -3 79 -6 83 -4 3 -80 10 -170 15 -178 11 -215 18 -265 52 -89 61
-93 131 -84 1758 7 1200 14 1497 35 1519 3 2 159 4 348 4 264 0 372 -4 472
-18 154 -20 181 -31 194 -83 14 -52 39 -275 47 -409 l7 -113 82 0 81 0 12 288
c7 158 17 354 23 435 6 82 9 150 7 152 -2 3 -148 0 -324 -5 -684 -21 -1533
-23 -2079 -6 -286 8 -562 19 -613 22 l-93 6 6 -39z"/>
<path d="M16465 4949 c-55 -9 -225 -36 -377 -60 l-278 -43 0 -77 0 -77 148 -4
c138 -3 150 -5 192 -29 95 -57 260 -263 517 -649 96 -144 391 -633 463 -765
24 -44 58 -104 76 -133 19 -29 34 -59 34 -67 0 -7 -28 -51 -63 -97 -87 -114
-932 -1277 -987 -1358 -63 -93 -137 -168 -195 -197 -44 -23 -141 -38 -262 -43
-9 0 -13 -24 -13 -83 l0 -83 360 -1 360 0 0 101 c0 91 3 107 30 164 16 35 56
104 89 155 32 51 109 172 171 270 62 98 169 262 238 365 69 103 175 259 234
347 59 88 125 180 147 203 l38 44 63 -109 c35 -59 104 -173 153 -253 49 -80
148 -248 219 -375 197 -348 300 -521 434 -728 l121 -188 384 0 c211 0 390 0
398 0 18 1 10 149 -8 161 -7 4 -57 10 -110 13 -159 8 -201 42 -338 266 -298
489 -754 1223 -842 1356 -58 88 -119 188 -135 221 l-29 62 120 158 c66 88 147
200 181 249 34 50 112 155 173 235 62 80 206 269 320 420 210 279 301 380 376
419 43 21 145 40 221 41 l42 0 0 78 0 79 -359 1 -359 1 -4 -127 c-3 -121 -4
-129 -33 -174 -120 -186 -573 -851 -651 -955 -53 -70 -107 -147 -121 -170 -14
-24 -28 -43 -32 -43 -11 0 -85 118 -129 206 -42 83 -274 487 -401 697 -207
342 -372 558 -446 584 -22 7 -56 5 -130 -8z"/>
<path d="M5200 3946 c0 -54 0 -55 33 -60 17 -3 76 -7 130 -10 84 -4 104 -8
137 -30 22 -14 40 -36 44 -53 12 -44 25 -1626 15 -1733 -5 -52 -9 -156 -9
-230 0 -170 -12 -247 -43 -277 -28 -28 -106 -43 -229 -43 l-88 0 0 -58 0 -58
450 0 450 0 0 53 c0 29 -1 53 -2 54 -2 1 -57 4 -123 8 -125 8 -186 26 -205 61
-25 46 -30 236 -29 1090 0 836 1 893 17 860 9 -19 91 -188 183 -375 92 -187
194 -398 227 -470 33 -71 150 -317 260 -545 177 -369 338 -713 355 -762 7 -20
24 -22 60 -9 19 7 34 35 72 133 91 233 137 330 653 1395 89 182 180 376 203
430 48 113 99 215 129 258 l21 30 -2 -910 c-1 -500 -6 -950 -11 -1000 -16
-158 -48 -184 -241 -194 l-122 -6 2 -48 c1 -27 4 -51 6 -54 3 -3 68 -3 144 -1
230 5 660 3 796 -5 l127 -7 0 59 0 59 -122 4 c-138 5 -193 24 -218 75 -9 19
-16 102 -22 258 -13 305 -2 1845 13 1913 21 101 59 121 244 131 l110 6 -1 47
c0 26 -2 49 -5 52 -2 2 -167 6 -365 8 l-362 3 -17 -55 c-9 -30 -42 -107 -72
-170 -31 -63 -97 -203 -148 -310 -51 -107 -214 -447 -362 -755 -149 -308 -295
-612 -325 -675 l-55 -115 -50 105 c-28 58 -164 337 -303 620 -306 625 -402
826 -536 1125 l-103 230 -356 3 -355 2 0 -54z"/>
<path d="M11220 3924 l0 -51 112 -7 c199 -12 223 -28 238 -157 14 -120 13
-1876 -1 -1975 -16 -117 -38 -149 -136 -198 -51 -26 -53 -28 -53 -69 l0 -42
392 0 c216 0 605 -1 863 -2 415 -2 554 3 570 18 2 3 20 133 40 289 19 157 38
297 41 313 l6 27 -60 0 -59 0 -33 -137 c-40 -168 -77 -290 -91 -299 -6 -3 -95
-18 -197 -32 -152 -20 -229 -25 -412 -25 -266 -1 -498 7 -508 17 -10 11 -10
1961 0 2069 16 166 38 186 218 198 63 4 121 8 128 8 8 1 12 19 12 54 l0 52
-535 0 -535 0 0 -51z"/>
<path d="M12910 3765 l0 -85 123 0 c147 0 237 -13 296 -43 73 -36 80 -53 98
-228 13 -133 14 -333 9 -1459 -5 -1248 -8 -1362 -37 -1534 -21 -125 -71 -152
-306 -163 l-133 -6 0 -85 0 -85 108 7 c274 15 673 17 1317 6 1022 -18 1125
-16 1373 16 l42 5 0 84 c0 127 36 557 65 768 l5 37 -89 0 -88 0 -7 -62 c-11
-95 -41 -228 -87 -380 l-42 -138 -53 -20 c-175 -65 -470 -87 -949 -70 -417 14
-595 26 -608 39 -23 23 -16 1505 7 1528 3 3 207 6 453 7 667 1 746 -17 773
-179 6 -33 13 -124 17 -202 l6 -143 81 0 c99 0 111 6 102 52 -8 46 -9 852 0
1027 l7 141 -81 0 -80 0 -7 -107 c-13 -208 -36 -292 -89 -317 -43 -20 -283
-47 -486 -53 -91 -3 -286 0 -433 7 l-269 14 7 390 c9 550 23 1048 30 1055 10
10 441 30 660 30 213 1 523 -28 695 -63 53 -11 137 -44 157 -60 12 -10 26
-144 31 -301 l7 -190 81 -3 82 -3 6 103 c20 302 45 506 78 631 11 43 18 80 16
83 -3 2 -81 12 -174 21 -153 14 -258 15 -1134 4 -531 -6 -999 -9 -1040 -7 -41
3 -180 8 -307 11 l-233 5 0 -85z"/>
<path d="M2310 3745 l0 -85 123 0 c147 0 237 -13 296 -43 73 -36 80 -53 98
-228 13 -133 14 -333 9 -1459 -5 -1248 -8 -1362 -37 -1534 -21 -125 -71 -152
-306 -163 l-133 -6 0 -85 0 -85 108 7 c274 15 673 17 1317 6 1022 -18 1125
-16 1373 16 l42 5 0 84 c0 127 36 557 65 768 l5 37 -89 0 -88 0 -7 -62 c-11
-95 -41 -228 -87 -380 l-42 -138 -53 -20 c-175 -65 -470 -87 -949 -70 -417 14
-595 26 -608 39 -23 23 -16 1505 7 1528 3 3 207 6 453 7 667 1 746 -17 773
-179 6 -33 13 -124 17 -202 l6 -143 81 0 c99 0 111 6 102 52 -8 46 -9 852 0
1027 l7 141 -81 0 -80 0 -7 -107 c-13 -208 -36 -292 -89 -317 -43 -20 -283
-47 -486 -53 -91 -3 -286 0 -433 7 l-269 14 7 390 c9 550 23 1048 30 1055 10
10 441 30 660 30 213 1 523 -28 695 -63 53 -11 137 -44 157 -60 12 -10 26
-144 31 -301 l7 -190 81 -3 82 -3 6 103 c20 302 45 506 78 631 11 43 18 80 16
83 -3 2 -81 12 -174 21 -153 15 -261 15 -1134 4 -531 -6 -999 -9 -1040 -7 -41
3 -180 8 -307 11 l-233 5 0 -85z"/>
<path d="M8352 3696 l3 -81 145 -6 c181 -8 223 -15 282 -46 72 -39 84 -95 94
-458 15 -562 -5 -2651 -26 -2753 -14 -61 -39 -96 -88 -121 -54 -27 -99 -34
-267 -40 l-150 -6 -3 -82 -3 -82 263 5 c145 3 316 9 380 14 146 12 362 12 448
1 36 -5 156 -12 268 -16 l202 -7 0 84 0 85 -162 6 c-176 6 -237 19 -292 60
-41 32 -52 79 -66 272 -21 304 -7 2716 18 2919 l7 60 50 13 c197 51 334 73
450 73 335 -1 533 -66 696 -229 62 -62 85 -94 122 -171 73 -150 90 -235 85
-405 -6 -169 -30 -271 -93 -400 -92 -185 -213 -290 -420 -361 -71 -24 -98 -28
-240 -32 -159 -4 -221 2 -319 33 l-48 15 6 -28 c3 -15 14 -58 24 -97 l18 -70
60 -12 c196 -40 458 -37 627 7 310 81 596 278 755 520 124 188 178 385 169
615 -6 155 -22 219 -83 343 -116 232 -317 367 -634 424 -137 24 -239 26 -1448
31 l-833 3 3 -80z"/>
</g>
</svg>
